# xmcd
#
# Track frame offsets:
#	150
#	13744
#	28568
#	42850
#	59893
#	75222
#	89761
#	103259
#	116340
#	129194
#	143892
#
# Disc length: 2389 seconds
#
# Revision: 0
# Processed by: cddbd v1.5.1PL2 Copyright (c) Steve Scherf et al.
# Submitted via: dBpowerAMP V4.0
#
DISCID=8e09530b
DTITLE=Victor Iturbe - Reunidos por siempre
DYEAR=1900
DGENRE=baladas
TTITLE0=Toda una vida-Mijares
TTITLE1=Mil besos-Christian Castro
TTITLE2=Soy lo prohibido-Manolella Torres
TTITLE3=Veronica-Carlos Cuevas
TTITLE4=Verdad Amarga-Pandora
TTITLE5=Que seas felis-Amaury Gutierrez
TTITLE6=Yo lo comprendo-Dulce
TTITLE7=Historia de un amor-Luis Fonsi
TTITLE8=Que sabes tu-Eugenia Leon
TTITLE9=Mienteme-Guadalupe Pineda
TTITLE10=Me esta gustando-Susana Zabaleta
EXTD=
EXTT0=
EXTT1=
EXTT2=
EXTT3=
EXTT4=
EXTT5=
EXTT6=
EXTT7=
EXTT8=
EXTT9=
EXTT10=
PLAYORDER=
